<?xml version="1.0" encoding="UTF-8"?>
<svg id="_Слой_2" data-name="Слой 2" xmlns="http://www.w3.org/2000/svg" viewBox="0 0 1024.11 1024.1">
  <defs>
    <style>
      .cls-1 {
        fill: url(#_Безымянный_градиент_95);
      }

      .cls-2 {
        stroke: #000;
        stroke-miterlimit: 10;
      }
    </style>
    <linearGradient id="_Безымянный_градиент_95"  x1="512.05" y1="1024.1" x2="512.05" y2="0" gradientUnits="userSpaceOnUse">
      <stop offset=".02" stop-color="#3fd1c2"/>
      <stop offset=".61" stop-color="#305a7d"/>
      <stop offset="1" stop-color="#281052"/>
    </linearGradient>
  </defs>
  <g id="_Слой_1-2" >
    <g>
      <path class="cls-1" d="M964.83,964.9c-60.02,61.09-196.88,55.97-281.24,58.68-90.61.85-184.32.38-274.56.42-55.4-.16-112.98-.33-167.35-3.56-64.72-4.64-138.13-11-183.6-56.86C6.77,908.23,6.17,822.39,1.79,741.54.05,690.88.15,629.85.08,572.74c.3-98.57-1.21-210.59,2.29-305.47,3.67-68.87,7.75-158.96,56.95-207.98C108.49,10.21,198.34,5.93,267.29,2.35,362.21-1.13,474.15.38,572.76.06c57.11.09,118.12,0,168.8,1.71,80.9,4.36,166.65,5,222.04,56.3,45.86,45.51,52.16,118.87,56.86,183.6,3.21,54.39,3.39,111.94,3.56,167.35-.05,90.25.43,183.94-.42,274.56-2.69,84.48,2.34,221.29-58.68,281.24l-.08.08Z"/>
      <g>
        <path d="M732.56,319.11c-11.86-23.99-31.42-43.61-53.13-58.91-17.45-12.37-37.18-21.21-57.31-28.23-25.16-8.72-51.28-15.44-77.78-18.25-10.58-1.11-21.31-1.78-31.92-1.15-10.62-.5-21.33.31-31.89,1.55-26.4,3.17-52.39,10.13-77.4,19.08-24.95,8.87-49,21.01-69.22,38.26-17.68,15.11-33.52,33.36-42.17,55.14-12.23,32.51-14.51,69.68-10.82,104.02.22,1.75.95,7.14,1.15,8.7.6,3.16,1.34,7.19,1.94,10.35.82,3.18,2.04,8.78,3.04,11.89.5,1.67,1.54,5.03,2.04,6.7,1.74,5.17,4.11,11.28,6.35,16.31,8.12,18.21,19.48,34.74,32.33,49.95,11.38,13.49,23.7,26.19,37.2,37.6,28.85,24.06,60.24,46.1,93.73,63.19,8.42,4.14,17.09,7.85,26.04,10.13,8.38,2.23,17.24,2.82,25.91,2.85,5.33,0,10.62.14,15.86-.35,14.11-.92,27.28-5.91,40.02-12,33.8-16.81,65.43-38.52,94.6-62.46,14.54-12.13,27.85-25.75,39.98-40.28,15.3-18.03,28.12-38.44,35.96-60.83.89-1.9,1.55-4.76,2.24-6.75,1.32-3.84,2.75-9.74,3.72-13.72.26-.85.59-2.6.76-3.47.49-2.52,1.17-6.23,1.66-8.74,0,0,.24-1.76.24-1.76,0,0,.95-7.05.95-7.05.62-4.07.85-10.02,1.26-14.18.6-14.1.42-28.64-1.17-42.66-2.22-18.79-6.12-37.71-14.17-54.93h0ZM732.56,319.11c8.1,17.21,12.04,36.12,14.32,54.91,1.63,14.02,1.87,28.58,1.28,42.69-.33,4.19-.63,10.09-1.16,14.21-.11,1.36-1.01,7.62-1.12,8.84-.45,2.52-1.14,6.24-1.6,8.77-.11.88-.53,2.62-.74,3.49-6.52,30.42-21.55,58.26-41.35,82.07-12.01,14.76-25.23,28.62-39.69,41-29.15,24.54-60.46,46.61-94.43,64.05-18.23,9.21-34.98,14.03-55.62,13.39-9.67.23-19.39-.24-28.83-2.6-27.94-7.45-52.58-23.57-76.52-39.17-27.7-18.57-54.6-39.18-76.77-64.32-9.6-10.71-18.71-21.91-26.56-34.02-10.39-16.2-18.45-34.11-23.34-52.74-.6-2.46-2.04-8.15-2.46-10.57-.58-3.28-1.46-7.39-1.88-10.68-1-6.66-1.71-14.82-2.14-21.54-.19-6.7-.4-14.88-.17-21.58.84-23.97,4.51-48.14,13.27-70.58,8.87-21.84,25.7-41.16,44.2-56.48,20.78-17.27,45.36-29.35,70.82-38.04,25.31-8.7,51.57-15.38,78.21-18.25,10.5-1.14,21.93-1.78,32.07-1.17,10.76-.5,21.47.31,32.14,1.56,26.54,3.21,52.66,10.11,77.83,19.04,25.18,8.89,49.47,21.07,69.98,38.34,16.28,13.73,30.92,30.08,40.27,49.35h0Z"/>
        <path d="M730.47,318.31c-11.9-23.95-31.49-43.51-53.21-58.76-17.45-12.33-37.2-21.07-57.34-28.02-25.15-8.63-51.26-15.25-77.74-17.96-10.55-1.07-21.28-1.7-31.85-1.04-10.58-.46-21.29.37-31.81,1.67-26.31,3.29-52.2,10.34-77.09,19.38-34.64,12.25-67.3,31.87-90.71,60.56-8,9.8-14.99,20.43-19.52,32.28-12.06,32.31-14.16,68.93-10.46,103.03.2,1.65.95,7.1,1.15,8.61.6,3.12,1.33,7.1,1.94,10.22.81,3.15,2.03,8.67,3.02,11.73.5,1.65,1.53,4.97,2.03,6.62,1.74,5.1,4.09,11.13,6.31,16.09,8.09,17.98,19.34,34.29,32.07,49.35,11.31,13.39,23.53,25.97,36.95,37.3,28.64,23.87,59.95,45.96,93.16,62.96,17.75,8.96,33.04,13.43,52.99,12.92,9.15.26,18.56-.16,27.44-2.31,27.12-7.12,51.41-22.72,74.96-37.77,30.63-20.04,59.82-42.65,83.53-70.69,14.73-16.89,27.46-35.72,35.92-56.55,3.51-8.6,6.38-17.97,8.53-27.03.55-1.92,1.04-4.98,1.45-6.95.39-2.02,1.01-4.96,1.26-6.99.6-4.16,1.42-9.96,1.68-14.1,0,0,.58-7.08.58-7.08,0,0,.23-7.1.23-7.1.78-29.85-2.93-63.02-15.49-90.34h0ZM730.47,318.31c8.12,17.17,12.08,36.06,14.37,54.83,1.3,11.67,1.85,23.79,1.51,35.53-.18,10.13-1.05,20.15-2.45,30.15-.45,2.51-1.13,6.24-1.58,8.77-.1.89-.54,2.62-.73,3.49-6.44,30.36-21.54,58.34-41.26,82.13-11.98,14.79-25.2,28.66-39.62,41.09-29.12,24.68-60.28,46.84-94.26,64.46-8.61,4.26-17.49,8.14-27.05,10.63-10.06,2.75-20.43,3.1-30.76,3.14-9.22.11-18.4-.36-27.44-2.59-19.06-4.74-36.09-14.04-52.83-23.75-24.62-14.83-48.32-30.89-70.4-49.47-13.8-11.56-26.54-24.53-38.22-38.25-13.38-15.62-25.21-32.81-33.56-51.71-4.87-10.97-8.81-22.93-11.42-34.65-.82-3.24-1.44-7.45-2.09-10.73-.25-1.1-.43-2.5-.57-3.6-.57-4.26-1.38-10.22-1.61-14.46,0,0-.54-7.25-.54-7.25-.1-4.27-.34-10.25-.25-14.47.13-19.3,2.21-38.7,6.98-57.44,3.94-15.42,9.19-29.13,18.16-41.9,23.28-33.75,58.88-57.52,97.23-70.92,5.47-2.06,13.56-4.69,19.09-6.47,31.78-9.65,66.4-16.65,99.06-15.13,21.51-.71,42.93,2.61,63.84,7.29,10.26,2.28,20.92,5.28,30.97,8.46,7.08,2.19,15.77,5.3,22.71,7.98,42.11,15.75,82.1,43.98,102.72,84.84h0Z"/>
        <path class="cls-2" d="M512.4,601.16c-9.98-.09-51.92-21.35-52.93-41.17,0-.13,0-.1,0-.05-2.36-25.77,13.54-32.82,36.96-30.56,4.44.43,9.18.9,15.98,1.65h0c5.61-.62,11.21-1.19,15.98-1.65,23.41-2.27,39.32,4.8,36.96,30.56,0-.05,0-.08,0,.05-1.01,19.82-42.95,41.08-52.93,41.17"/>
        <path d="M535.81,420.65c15.81,26.12,52.77,32.09,75.59,12.52,7.3-6.16,12.77-14.75,15.35-25.37,1.29,5.32,1.05,11.11-.46,16.65-1.52,5.54-4.36,10.8-8.13,15.31-15.22,18.62-44.86,22.2-64.51,8.77-9.46-6.26-16.73-16.62-17.84-27.88h0Z"/>
        <path d="M488.43,421.87c-1.39,11.21-8.86,21.39-18.42,27.49-25.31,16.72-64.33,5.12-72.13-25.33-1.38-5.57-1.46-11.37-.04-16.66,1.2,5.34,3.01,10.2,5.53,14.5,18.5,31.55,65.48,30.48,85.06-.01h0Z"/>
        <path class="cls-2" d="M626.76,497.89c-14.06,10.97-22.47,31.01-22.32,57.16.24,39.68-52.5,80.85-66.82,91.3-.54.39-.12,1.23.52,1.04,13.48-4.05,57.09-21.9,99.49-65.4,73.21-75.1,83.67-202.96,76.39-205.26-5.45-1.73,3.25,58.44-44.27,89.72-39.05,25.7-26.46,18.55-42.99,31.45Z"/>
        <path class="cls-2" d="M378.56,199.43c-24.42-20.72-66.78-13.17-94.62,16.86-27.84,30.02-30.61,71.16-6.2,91.87,24.42,20.72,66.78,13.17,94.62-16.86,27.84-30.02,30.61-71.16,6.2-91.87Z"/>
        <path d="M494.5,417.23c11.35-2.17,14.21-5.28,16.01-16.59.52-2.94,1.01-5.96,1.86-8.93.73,7.25,1.56,17.06-4.18,22.62-3.58,3.38-9.18,3.78-13.68,2.9h0Z"/>
        <path d="M530.26,417.22c-4.5.88-10.11.49-13.68-2.88-5.74-5.53-4.93-15.38-4.21-22.62.85,2.97,1.34,5.99,1.87,8.93,1.81,11.32,4.69,14.42,16.03,16.57h0Z"/>
        <g>
          <path d="M681.5,460.01c6.66-34.21,5.8-74.49-15.91-113.95-24.4-44.36-60.07-80.67-110.69-97.19,83.27,38.58,131.25,123.59,126.6,211.14Z"/>
          <path class="cls-2" d="M726.37,296.55c-19.62-33.99-45.96-38.79-61.98-46.34-41.57-19.59-100.78-38.71-148.78-38.72-62.12,0-118.57,22.96-120.9,28.02,48.99-16.07,103.71-15.05,154.66,6.89,1.86.8,3.7,1.63,5.52,2.47,50.61,16.52,86.29,52.83,110.69,97.19,21.71,39.46,22.57,79.74,15.91,113.95-1.35,25.46-7.15,51.14-17.83,75.95-12.34,28.65-30,53.36-51.3,73.48,8.09-5.25,16.04-10.73,23.31-16.15,13.03-9.73,113.82-66.62,112.33-176.29.96-18.99,2.24-79.08-21.64-120.45Z"/>
          <path class="cls-2" d="M395.07,240.33c2.21.83,24.97-14.8,129.85,1.43,10.53,1.63,20.51,4.03,29.97,7.12-1.82-.85-3.66-1.67-5.52-2.47-50.95-21.94-105.67-22.96-154.66-6.89-.17.37-.08.66.36.82Z"/>
          <path class="cls-2" d="M663.67,535.96c10.68-24.81,16.48-50.49,17.83-75.95-8.07,41.46-27.19,74.01-33.66,85.4-12.22,21.53-43.9,59.21-51.6,63.5-.28.16-8.56,4.75-13.57,11.84l16.44-23.66c-4.77,3.8-44.94,43.1-47.68,45.04,13.79-4.76,37.98-17.81,60.94-32.7,21.3-20.12,38.96-44.83,51.3-73.48Z"/>
        </g>
        <path class="cls-2" d="M740.07,315.37c25.78-18.99,28.2-61.95,5.4-95.95-22.8-34.01-62.19-46.19-87.97-27.2-25.78,18.99-28.2,61.95-5.4,95.95,22.8,34.01,62.19,46.19,87.97,27.2Z"/>
      </g>
      <g>
        <g>
          <path d="M503.36,872.7c-.57.11-1.19.01-1.74-.37-3.03-2.12-8.3-6.04-17.21-13.21-22.96-18.49-85.27-72.58-195.39-90-27.33-4.32-89.39-4.84-117.51-4.84-6.2,0-9.96-6.84-6.65-12.08l3.87-6.11c-3.58-.29-6.71-.53-9.32-.72-5.43-.4-10.64,2.22-13.57,6.81l-24.9,39.07c-6.41,10.06,1.1,23.18,13.02,22.76,37.61-1.32,108.61-1.97,189.04,6.62,116.01,12.39,183,57.87,183,57.87,1.26.11.35-2.02-2.64-5.8Z"/>
          <g>
            <path d="M364.52,744.7c-69.13-27.13-119.79-30.02-142.98-29.48-5.84.14-9.47-6.29-6.35-11.23l4.4-6.42-15.86-.91c-2.55.2-4.85,1.6-6.21,3.76l-18.22,28.92c-3.41,5.41.5,12.46,6.9,12.42,31.5-.2,107.09,2.33,171.53,27.88,72.85,28.88,126.38,86.69,142.31,102.67.4.4,3.18,1.44,2.87.97-3.08-4.61-9.24-14.76-16.34-24.64-4.98-6.92-10.79-14.68-17.05-22.69-25.06-29.48-61.54-64.19-104.99-81.24Z"/>
            <path d="M505.81,806.99c-2.64-6.43-5.8-12.68-9.05-18.81-7.19-13.54-15.42-26.59-24.95-38.61-10.99-13.88-23.98-25.93-38.22-36.42s-29.79-19.58-45.77-27.43c-7.86-3.87-15.86-7.45-23.96-10.8-8.25-3.41-16.6-6.69-25.1-9.42-17.86-5.74-36.52-8.89-55.23-9.95-7.07-.4-14.16-.5-21.25-.29-3.15.09-6.39.08-9.48.74-3.87.82-7.53,2.57-10.58,5.08s-5.27,6.01-7.44,9.44c-2.63,4.16-5.27,8.33-7.9,12.49-3.75,5.92-7.49,11.85-11.24,17.77-.44.69-.88,1.38-1.17,2.16-.67,1.83-.47,3.9-.46,5.81,0,1.71.01,3.33.78,4.9.68,1.39,1.79,2.55,3.16,3.27,2.1,1.1,4.49.79,6.78.77,1.97-.02,3.95,0,5.92.03,10.58.19,21.15,1.05,31.65,2.39,14.62,1.86,29.12,4.68,43.43,8.22,18.23,4.52,36.16,10.24,53.71,16.92,8.64,3.29,17.07,6.95,25.22,11.32,7.87,4.22,15.45,8.96,22.76,14.08,14.22,9.95,27.4,21.33,39.7,33.56,12.15,12.07,23.45,24.99,33.98,38.49,8.17,10.48,15.94,21.3,23,32.56.38.6.75,1.21,1.13,1.81.18.29.42.96.71,1.16.42.29.29-.27.29-.68.01-1.01,0-2.03,0-3.05,0-.15,0-.3,0-.45-.01-2.35-.03-4.71-.04-7.06-.06-9.53-.12-19.07-.17-28.6-.05-8.74-.11-17.47-.16-26.21-.01-1.69.02-3.4-.04-5.09-.01-.33-.03.41-.02.25-.02.5-.01,1-.01,1.49,0,1.02-.02,2.05.02,3.08-.01-.29-.02-1.49-.01-.54,0,.48,0,.97,0,1.45.01,1.63.02,3.27.03,4.9.03,5.28.07,10.56.1,15.85.07,11.78.14,23.57.22,35.35.02,2.7.03,5.41.05,8.11l.02-3.76c-.2.28-.51-.44-.62-.62-.25-.42-.51-.83-.77-1.25-.78-1.26-1.57-2.51-2.37-3.75-2.62-4.08-5.33-8.09-8.11-12.06-8.51-12.15-17.64-23.86-27.35-35.07-8.91-10.28-18.31-20.14-28.28-29.4-10.72-9.97-22.1-19.26-34.22-27.49-12.36-8.39-25.51-15.68-39.4-21.19-15.18-6.02-30.7-11.27-46.42-15.69-13.04-3.66-26.25-6.74-39.59-9.09-10.44-1.84-20.96-3.25-31.53-4.1-7.62-.61-15.27-.94-22.92-.88-1.84.02-3.82.27-5.59-.31-2.47-.81-4.34-2.97-4.86-5.5-.16-.79-.11-2.13-.12,1.05s-.04,1.7.14.88c.16-.71.44-1.4.8-2.03.23-.41.5-.8.75-1.2l3.21-5.07c2.94-4.65,5.88-9.3,8.83-13.95,2.21-3.5,4.43-7,6.64-10.49,1.36-2.15,2.65-4.43,4.25-6.42,4.19-5.19,10.44-8.51,17.09-9.08,5.15-.44,10.37-.44,15.53-.4,14.16.1,28.34,1.4,42.26,4,8.27,1.55,16.46,3.57,24.48,6.11,7.22,2.29,14.3,5.02,21.33,7.83,13.63,5.45,27.01,11.58,39.94,18.54,13.23,7.12,26.01,15.13,37.93,24.27s22.57,19.09,31.98,30.49c8.59,10.4,16.13,21.67,22.85,33.36,4.39,7.63,8.46,15.46,12.08,23.48.56,1.24,1.12,2.49,1.64,3.75-.24-.58.02-1.86.02-2.5,0-.69.24-1.85-.02-2.5Z"/>
          </g>
        </g>
        <g>
          <path d="M515.09,873.11c.56.14,1.19.09,1.76-.27,3.15-1.93,8.65-5.53,17.98-12.15,24.03-17.07,89.5-67.3,200.47-78.03,27.54-2.67,89.52.56,117.59,2.26,6.19.37,10.36-6.23,7.37-11.66l-3.49-6.33c3.59-.07,6.73-.12,9.35-.15,5.45-.07,10.49,2.86,13.13,7.62l22.49,40.51c5.79,10.43-2.49,23.07-14.37,21.93-37.46-3.59-108.3-8.52-189.1-4.8-116.54,5.36-186.16,46.72-186.16,46.72-1.27.04-.23-2.03,2.99-5.63Z"/>
          <g>
            <path d="M661.41,753.73c70.64-22.9,121.38-22.73,144.5-20.79,5.82.49,9.84-5.71,7.02-10.83l-4-6.68,15.89.05c2.53.36,4.74,1.89,5.97,4.13l16.44,29.97c3.08,5.61-1.25,12.41-7.63,11.98-31.43-2.1-107.04-4.14-172.9,17.47-74.46,24.43-131.38,78.9-148.26,93.89-.42.38-3.26,1.24-2.92.79,3.35-4.42,10.11-14.17,17.8-23.61,5.39-6.61,11.66-14,18.39-21.62,26.8-27.91,65.31-60.36,109.71-74.75Z"/>
            <path d="M516.46,812.4c.08-.37.36-.75.53-1.08.45-.89.9-1.77,1.36-2.64,1.66-3.15,3.4-6.27,5.19-9.35,5.84-10.02,12.27-19.71,19.33-28.92,8.77-11.45,18.56-22.09,29.62-31.37s23.94-17.88,36.98-25.12c13.07-7.26,26.71-13.5,40.63-18.94s27.98-10.33,42.37-13.95c15.5-3.9,31.46-5.89,47.42-6.32,11.65-.32,23.54-.04,35.1,1.57,6.5.9,12.48,4.44,16.4,9.71,1.55,2.09,2.73,4.48,3.98,6.75,3.79,6.88,7.58,13.76,11.38,20.64.85,1.54,1.7,3.08,2.54,4.61l3,5.44c.21.39.43.77.64,1.16.28.53.52,1.08.67,1.66.1.35.11.72.21,1.06v-1.75c.08-1.79.08-2.33,0-1.6-.04.19-.05.39-.09.59-.53,2.63-2.52,4.86-5.11,5.62-1.82.53-3.77.17-5.62.04-3.42-.24-6.85-.4-10.28-.48-9.11-.24-18.23,0-27.32.59-11.99.79-23.94,2.21-35.79,4.15-14.69,2.4-29.25,5.61-43.62,9.47-15.54,4.18-31.03,8.82-45.65,15.61-13.65,6.34-26.59,14.15-38.83,22.89-11.65,8.32-22.69,17.48-33.19,27.21-10.71,9.94-20.86,20.48-30.46,31.49-7.65,8.77-14.99,17.82-21.86,27.22-.84,1.15-1.67,2.3-2.48,3.46-.17.25-1.25,1.96-1.43,1.68v4.91c.5-7.46,1-14.92,1.5-22.38.79-11.84,1.58-23.69,2.37-35.53.18-2.73.36-5.45.54-8.18.07-1.02.02-2.06.02-3.08,0-.5.02-1-.01-1.49,0-.05,0-.49-.02-.25-.36,5.37-.72,10.74-1.07,16.11-.68,10.21-1.36,20.42-2.04,30.63-.42,6.36-.91,12.72-1.27,19.08,0,.18-.02.35-.02.53-.02.72-.01,1.44-.01,2.16,0,.67-.14,1.5.01,2.16.1.44.02.5.34.23s.57-.83.82-1.18c.42-.6.85-1.2,1.28-1.8,3.05-4.26,6.23-8.44,9.47-12.55,10.69-13.56,22.19-26.5,34.43-38.68s24.58-23.01,38.06-33.07c14.34-10.69,29.66-20.18,45.98-27.53,8.61-3.88,17.49-6.96,26.51-9.73,9.43-2.9,18.94-5.52,28.52-7.84,16.09-3.9,32.41-6.94,48.85-8.91,12.39-1.48,24.85-2.36,37.33-2.45,4.69-.03,9.37.05,14.06.26,1.93.09,3.86.2,5.79.34,2.62.19,5.13.48,7.38-1.2,3.33-2.48,3.03-6.36,3-10.08-.01-1.56-.21-2.96-.94-4.36-.29-.56-.61-1.1-.91-1.65-1.49-2.7-2.98-5.41-4.47-8.11-4.24-7.7-8.48-15.39-12.72-23.09-2.1-3.82-4.26-7.44-7.73-10.23-3.04-2.45-6.64-4.16-10.46-4.96-2.96-.62-6.05-.79-9.06-1.05-16.06-1.38-32.28-1.2-48.28.65-9.93,1.15-19.78,2.97-29.44,5.54-8.54,2.28-16.97,5.04-25.31,7.94-16.71,5.82-33.09,12.65-48.77,20.86-15.81,8.28-30.95,17.99-44.55,29.59-12.87,10.99-23.96,23.86-33.76,37.62-6.78,9.52-13,19.48-18.5,29.79-.62,1.16-1.23,2.32-1.82,3.49-.21.42-.57.92-.68,1.39-.17.76-.03,1.72-.03,2.5s.2,1.75.03,2.5Z"/>
          </g>
        </g>
      </g>
      <path class="cls-2" d="M517.43,807.05l-2.35,1.45c-1.81,1.11-4.1,1.05-5.84-.16l-5.33-3.69v71.9l3.07,1.96c1.63,1.61,4.46,1.83,6.1.23l4.35-2.39v-69.3Z"/>
    </g>
  </g>
</svg>